<svg width="197" height="197" viewBox="0 0 197 197" fill="none" xmlns="http://www.w3.org/2000/svg">
<g filter="url(#filter0_d_0_600)">
<path d="M141.915 96.2283C140.743 111.885 130.525 134.457 109.378 141.991C104.064 143.885 101.47 141.284 95.3148 140.977C89.8155 140.702 87.9347 142.465 82.9055 140.086C62.0214 130.204 54.6445 106.556 55.9007 89.7853C57.543 67.8602 76.5742 58.0657 100.271 74.8114C124.482 62.4859 143.558 74.3031 141.915 96.2283Z" fill="#FF542F"/>
<path fill-rule="evenodd" clip-rule="evenodd" d="M100.587 70.513C88.8124 62.7614 77.5075 60.7886 68.4589 64.3236C58.8419 68.0806 53.0789 77.5386 52.1824 89.5071C50.8551 107.228 58.5656 132.695 81.3111 143.457C84.4539 144.944 86.8181 145.186 89.1618 145.043C89.9667 144.994 90.6268 144.923 91.2477 144.857C92.4378 144.731 93.4838 144.619 95.1291 144.701C97.0847 144.799 98.4663 145.138 100.037 145.523C100.611 145.664 101.21 145.81 101.871 145.954C104.37 146.496 107.104 146.761 110.63 145.504C133.646 137.304 144.396 113.049 145.635 96.5072C146.544 84.3712 141.686 74.3896 132.579 69.4049C124.058 64.741 112.677 64.9212 100.587 70.513ZM109.379 141.991C130.525 134.457 140.743 111.885 141.916 96.2286C143.558 74.3034 124.482 62.4863 100.271 74.8117C76.5747 58.066 57.5435 67.8605 55.9012 89.7857C54.645 106.556 62.0219 130.205 82.906 140.086C86.1713 141.631 88.1094 141.429 90.5723 141.173C91.9028 141.035 93.3865 140.88 95.3153 140.977C97.6558 141.094 99.4813 141.542 101.137 141.949C103.836 142.612 106.085 143.165 109.379 141.991Z" fill="white"/>
<path fill-rule="evenodd" clip-rule="evenodd" d="M102.101 131.274C123.247 123.739 131.814 101.005 132.987 85.3485C133.33 80.7635 132.768 76.6206 131.442 73.048C138.628 77.3216 142.714 85.5836 141.917 96.2282C140.744 111.884 130.526 134.457 109.38 141.991C106.086 143.164 103.837 142.612 101.138 141.949C99.4821 141.542 97.6566 141.093 95.3162 140.976C93.3874 140.88 91.9037 141.034 90.5731 141.173C88.1102 141.429 86.1721 141.631 82.9069 140.086C75.2684 136.472 69.4369 131.016 65.1738 124.728C67.3307 126.354 69.7096 127.805 72.3264 129.044C75.6943 130.637 78.3906 130.445 81.456 130.227C82.9681 130.12 84.5699 130.006 86.3865 130.097C88.6672 130.211 90.6857 130.662 92.5935 131.088C95.8341 131.813 98.7554 132.466 102.101 131.274Z" fill="#ED4A27"/>
<path d="M130.003 90.9095C129.573 92.6906 127.781 93.7862 126 93.3565C124.219 92.9268 123.123 91.1345 123.553 89.3534C123.983 87.5723 125.775 86.4768 127.556 86.9065C129.337 87.3362 130.433 89.1284 130.003 90.9095Z" fill="#C53622"/>
<path d="M137.998 101.348C137.568 103.129 135.776 104.224 133.995 103.794C132.213 103.365 131.118 101.573 131.548 99.7914C131.977 98.0103 133.77 96.9148 135.551 97.3445C137.332 97.7742 138.427 99.5664 137.998 101.348Z" fill="#C53622"/>
<path d="M139.039 88.8234C138.716 90.1592 137.372 90.9809 136.036 90.6586C134.701 90.3363 133.879 88.9921 134.201 87.6563C134.523 86.3205 135.868 85.4988 137.203 85.8211C138.539 86.1434 139.361 87.4875 139.039 88.8234Z" fill="#C53622"/>
<path d="M133.621 112.511C133.191 114.292 131.399 115.387 129.618 114.958C127.837 114.528 126.741 112.736 127.171 110.955C127.6 109.173 129.393 108.078 131.174 108.508C132.955 108.937 134.05 110.73 133.621 112.511Z" fill="#C53622"/>
<path d="M125.626 102.073C125.196 103.854 123.404 104.949 121.623 104.52C119.842 104.09 118.746 102.298 119.176 100.517C119.606 98.7355 121.398 97.64 123.179 98.0697C124.96 98.4994 126.056 100.292 125.626 102.073Z" fill="#C53622"/>
<path d="M126.94 124.491C126.51 126.272 124.718 127.368 122.936 126.938C121.155 126.509 120.06 124.716 120.49 122.935C120.919 121.154 122.711 120.059 124.493 120.488C126.274 120.918 127.369 122.71 126.94 124.491Z" fill="#C53622"/>
<path d="M121.292 113.83C120.862 115.611 119.07 116.706 117.289 116.277C115.507 115.847 114.412 114.055 114.842 112.274C115.271 110.493 117.064 109.397 118.845 109.827C120.626 110.256 121.721 112.049 121.292 113.83Z" fill="#C53622"/>
<path d="M119.673 131.175C119.351 132.511 118.007 133.333 116.671 133.011C115.335 132.688 114.514 131.344 114.836 130.008C115.158 128.673 116.502 127.851 117.838 128.173C119.174 128.495 119.996 129.84 119.673 131.175Z" fill="#C53622"/>
<path d="M122.119 42.8395C122.119 42.8395 124.298 58.3242 119.625 66.1779C113.993 75.6437 99.8743 74.8864 99.8743 74.8864C99.8743 74.8864 96.7601 62.8663 103.378 53.3326C108.468 45.9989 122.119 42.8395 122.119 42.8395Z" fill="#7CD623"/>
<path fill-rule="evenodd" clip-rule="evenodd" d="M125.812 42.32L122.119 42.8397L121.278 39.2066C122.297 38.9708 123.368 39.1736 124.23 39.7656C125.092 40.3576 125.666 41.2844 125.812 42.32ZM118.493 43.8965C120.649 43.18 122.119 42.8397 122.119 42.8397C122.119 42.8397 122.327 44.3189 122.477 46.5948C122.811 51.6825 122.854 60.7517 119.625 66.1781C113.993 75.6439 99.8743 74.8866 99.8743 74.8866C99.8743 74.8866 96.7601 62.8665 103.378 53.3328C106.798 48.406 114.081 45.3632 118.493 43.8965ZM99.8743 74.8866C96.2643 75.8219 96.264 75.8206 96.2637 75.8193L96.2612 75.8097L96.2569 75.793L96.2453 75.7462C96.2361 75.7093 96.2243 75.6606 96.2103 75.6008C96.1823 75.4812 96.1452 75.3167 96.1024 75.1109C96.0168 74.6995 95.9079 74.1211 95.802 73.4047C95.5909 71.9764 95.3884 69.9755 95.4155 67.6416C95.4691 63.0168 96.4298 56.8025 100.314 51.2063C103.496 46.6226 109.032 43.6604 113.209 41.8997C115.383 40.9833 117.377 40.3166 118.828 39.8782C119.555 39.6583 120.152 39.494 120.575 39.3831C120.786 39.3276 120.954 39.2853 121.073 39.256C121.132 39.2413 121.179 39.2299 121.214 39.2217L121.256 39.2117L121.274 39.2074L121.278 39.2066C121.279 39.2064 121.278 39.2066 122.119 42.8397C125.812 42.32 125.812 42.3193 125.812 42.32L125.813 42.3282L125.815 42.342L125.821 42.3863L125.841 42.5402C125.858 42.6711 125.881 42.8577 125.908 43.0943C125.963 43.5673 126.033 44.2418 126.103 45.072C126.241 46.7278 126.374 49.0261 126.353 51.594C126.314 56.5189 125.714 63.2379 122.83 68.0848C119.264 74.0794 113.154 76.6176 108.49 77.7125C106.108 78.2718 103.941 78.4952 102.371 78.5807C101.583 78.6237 100.934 78.6324 100.471 78.6298C100.24 78.6285 100.054 78.6244 99.9192 78.6202C99.8519 78.6181 99.7975 78.6161 99.7565 78.6143L99.7052 78.612L99.6873 78.6111L99.6803 78.6107L99.6773 78.6106C99.6759 78.6105 99.6746 78.6104 99.8743 74.8866ZM96.2643 75.8219L99.8743 74.8866L99.6746 78.6104C98.0516 78.5234 96.672 77.3953 96.2643 75.8219Z" fill="white"/>
<path d="M117.133 65.9896C121.212 60.1144 120.416 47.2703 120.416 47.2703C109.06 56.9601 105.295 68.5976 104.284 72.8343C104.284 72.8343 113.055 71.8649 117.133 65.9896Z" fill="#6FC21C"/>
<path d="M82.1274 56.5451C85.6113 57.7488 96.4491 68.978 99.1483 75.5715C99.3735 76.1215 100.881 75.4437 100.691 74.9627C99.388 68.8073 94.7433 54.1238 90.3109 49.3999C83.9351 48.6364 82.0587 55.1827 82.1274 56.5451Z" fill="#943D31"/>
<path fill-rule="evenodd" clip-rule="evenodd" d="M80.91 60.0699C79.472 59.5731 78.48 58.2525 78.4033 56.733C78.3522 55.7186 78.6163 54.5425 78.945 53.5617C79.3098 52.473 79.8995 51.1898 80.7977 49.9674C82.6786 47.4074 85.9656 45.1239 90.7547 45.6973C91.6251 45.8016 92.4309 46.2091 93.0307 46.8484C94.5045 48.419 95.8165 50.5984 96.9487 52.8406C98.1087 55.1379 99.199 57.7435 100.169 60.3403C102.066 65.4243 103.589 70.7132 104.302 74.0132C104.872 76.0425 103.624 77.5355 103.247 77.9263C102.685 78.5099 102.037 78.874 101.525 79.0899C101.023 79.3015 100.262 79.5356 99.3737 79.5028C98.5218 79.4713 96.5536 79.0757 95.6975 76.9844C94.613 74.3353 91.6164 70.2854 88.1891 66.5633C86.5256 64.7566 84.866 63.1416 83.4526 61.9319C82.7448 61.326 82.1335 60.8518 81.6408 60.5142C81.1954 60.209 80.9636 60.0968 80.9158 60.0736C80.9057 60.0687 80.9038 60.0678 80.91 60.0699ZM100.692 74.9628C100.69 74.9558 100.689 74.9488 100.687 74.9417C100.514 74.1249 100.282 73.1591 99.9999 72.0872C99.6418 70.726 99.2027 69.1937 98.6995 67.578C96.6074 60.86 93.4075 52.6999 90.3113 49.4001C83.9355 48.6365 82.0591 55.1828 82.1278 56.5452C84.6394 57.413 90.9733 63.4916 95.3242 69.2872C96.2449 70.5137 97.0769 71.7274 97.765 72.8765C98.277 73.7316 98.7094 74.5508 99.0395 75.3127C99.0773 75.3997 99.1136 75.486 99.1487 75.5716C99.3738 76.1216 100.881 75.4438 100.692 74.9628ZM97.021 75.6303C97.0616 75.8545 97.1269 76.0886 97.2227 76.3314C97.1464 76.1381 97.0865 75.9387 97.0434 75.7353C97.0361 75.7006 97.0286 75.6656 97.021 75.6303Z" fill="white"/>
<path d="M91.5342 49.6455C92.5775 51.0038 91.504 53.579 89.1366 55.3975C86.7691 57.2159 84.0041 57.5889 82.9608 56.2306C81.9175 54.8724 82.991 52.2971 85.3585 50.4787C87.7259 48.6602 90.4909 48.2872 91.5342 49.6455Z" fill="#C26649"/>
<path d="M82.6539 73.1992C87.3241 76.0978 87.5853 84.1266 83.2373 91.1319C78.8892 98.1372 71.5785 101.466 66.9083 98.5676C62.2381 95.6689 61.9769 87.6402 66.3249 80.6349C70.673 73.6295 77.9837 70.3005 82.6539 73.1992Z" fill="#FF896F"/>
<path fill-rule="evenodd" clip-rule="evenodd" d="M76.3906 78.5484C77.8353 80.0163 77.8166 82.3774 76.3487 83.8221C75.3928 84.763 74.7269 85.7896 74.3014 86.9169C73.5741 88.8437 71.4225 89.8162 69.4956 89.0889C67.5688 88.3616 66.5963 86.2099 67.3236 84.2831C68.1484 82.098 69.4293 80.1676 71.1169 78.5066C72.5847 77.0619 74.9458 77.0806 76.3906 78.5484Z" fill="white"/>
</g>
<defs>
<filter id="filter0_d_0_600" x="46.4386" y="36.5105" width="122.904" height="136.495" filterUnits="userSpaceOnUse" color-interpolation-filters="sRGB">
<feFlood flood-opacity="0" result="BackgroundImageFix"/>
<feColorMatrix in="SourceAlpha" type="matrix" values="0 0 0 0 0 0 0 0 0 0 0 0 0 0 0 0 0 0 127 0" result="hardAlpha"/>
<feOffset dx="9" dy="12"/>
<feGaussianBlur stdDeviation="7.3"/>
<feComposite in2="hardAlpha" operator="out"/>
<feColorMatrix type="matrix" values="0 0 0 0 0.993115 0 0 0 0 0.743134 0 0 0 0 0.689567 0 0 0 1 0"/>
<feBlend mode="normal" in2="BackgroundImageFix" result="effect1_dropShadow_0_600"/>
<feBlend mode="normal" in="SourceGraphic" in2="effect1_dropShadow_0_600" result="shape"/>
</filter>
</defs>
</svg>
